<?xml version="1.0" encoding="UTF-8"?>
<svg id="uuid-a5f5111c-0b69-48cb-b488-52a4f9dd4687" data-name="Layer 1" xmlns="http://www.w3.org/2000/svg" width="16" height="16" viewBox="0 0 16 16">
  <rect y="-.34482910357292" width="16" height="16.000000002155502" fill="none"/>
  <path d="M14.75-.34482910357292H1.25C.559646606445312-.34482910357292,0,.214817502872393,0,.90517089642708v11c0,.690353393554688.559646606445312,1.25,1.25,1.25h13.5c.690353393554688,0,1.25-.559646606445312,1.25-1.25V.90517089642708c0-.690353393554688-.559646606445312-1.25-1.25-1.25ZM14.75,11.90517089642708H1.25V.90517089642708h13.5v11Z" fill="#67b1e6"/>
  <path d="M7.625,13.90517089642708h-1c-.474999904632568,0-1-.875-1-1.5V3.605170705692217c0-.525000095367432.449999809265137-.950000047683716,1-.950000047683716h1c.274999618530273,0,.5-.224999904632568.5-.5s-.225000381469727-.5-.5-.5h-1c-.599999904632568,0-1.125.25-1.5.649999856948853-.375-.400000095367432-.900000095367432-.650000095367432-1.5-.650000095367432h-1c-.275000095367432,0-.5.224999904632568-.5.5s.224999904632568.5.5.5h1c.550000190734863,0,1,.425000190734863,1,.949999809265137v8.800000667572021c0,.625-.525000095367432,1.5-1,1.5h-1c-.275000095367432,0-.5.225000381469727-.5.5s.224999904632568.5.5.5h1c.625,0,1.150000095367432-.425000190734863,1.5-.949999809265137.349999904632568.550000190734863.875.949999809265137,1.5.949999809265137h1c.274999618530273,0,.5-.225000381469727.5-.5s-.225000381469727-.5-.5-.5Z" fill="#666"/>
  <path d="M7.236452985356664,10.578816439254297c-.480295584551641-.448276367500512-.736452985356664-1.024630824671476-.736452985356664-1.761083810031778,0-.736452985354845.224138183750256-1.280788225472861.704433768301897-1.697044154463583.480295584555279-.416255928987084,1.184729352855356-.64039411273734,2.081280866399538-.64039411273734h2.017241210833163v-.736452985358483c0-.448275756770272-.128079311130932-.800492640923039-.416255928988903-1.024630824671476s-.640394112739159-.32019705636958-1.088670480236033-.32019705636958c-.448276367500512,0-.544335240116197.032019827784097-.736452985358483.128078700403421-.192117745238647.096058872619324-.352216273422528.192118355966159-.448276367496874.32019705636867s-.192117745242285.288177228586392-.224138183752075.48029558455255h-1.568965454061981c0-.32019705636867.096058872619324-.64039411273734.256157400806842-.896551513540544.16009791745455-.256157400805023.320196445642068-.512315412336648.576355067900295-.704433768303716s.576354457170964-.352216884150948.928571952052152-.448275756771181c.35221749487755-.096058872619324.800492640923039-.16009852818388,1.312807442529447-.16009852818388.512314801608227,0,1.088670480237852.096058872619324,1.568966064791312.256157400804113.480295584551641.16009852818388.832511857977806.448275756772091,1.1206896972908.832512468704408s.416255928988903.928571341324641.416255928988903,1.568965454062891v5.379310302708291h-1.568966064789493v-1.024630824673295h-.064039655564557c-.128079311129113.192117745242285-.256157400803204.384236711934136-.480295584555279.576354457176421-.224138183748437.192117745236828-.448276367496874.320197056367761-.736452985354845.416255928987084-.288176617861609.096058872621143-.640394112739159.16009852818388-1.024630824673295.16009852818388-.768473423868272,0-1.376847098095823-.224138183748437-1.857142682649283-.672413329792107l-.032019217056586-.032019217054767ZM10.502463204613377,9.746304581274671c.256157400803204-.128079311129113.448276367498693-.320197056367761.608374895684392-.544335240118016.16009852818388-.224138183746618.224138183744799-.480295584551641.224138183744799-.768473423864634v-.864532296489415h-1.729064592971554c-.48029558455346,0-.832511857977806.096058872621143-1.056650041729881.32019705636958-.224138183744799.224138183748437-.320197056367761.48029558455346-.320197056367761.832511857977806,0,.352216273422528.16009852818388.736452985356664.448276367498693.928571952052152s.608374895684392.288177839314812.992610386163506.288177839314812.608374895680754-.064039655566376.864532296485777-.192117745242285h-.032020438507971Z" fill="#30a0fb"/>
</svg>