<?xml version="1.0" encoding="UTF-8"?>
<svg id="uuid-2a5d7d91-b99c-4f6d-8db7-ce935bc3d92c" data-name="Layer 1" xmlns="http://www.w3.org/2000/svg" width="32" height="32" viewBox="0 0 32 32">
  <rect y=".000000002155502" width="32" height="32.000000004309186" fill="none"/>
  <path d="M29.5.000000002155502H2.5C1.119293212890625.000000002155502,0,1.119293215046127,0,2.500000002155502v22c0,1.380706787109375,1.119293212890625,2.5,2.5,2.5h27c1.380706787109375,0,2.5-1.119293212890625,2.5-2.5V2.500000002155502C32,1.119293215046127,30.880706787109375.000000002155502,29.5.000000002155502ZM29.5,24.500000002155502H2.5V2.500000002155502h27v22Z" fill="#67b1e6"/>
  <path d="M15.25,28.500000002155502h-2c-.949999809265137,0-2-1.75-2-3V7.899999620685776c0-1.050000190734863.899999618530273-1.900000095367432,2-1.900000095367432h2c.549999237060547,0,1-.449999809265137,1-1s-.450000762939453-1-1-1h-2c-1.199999809265137,0-2.25.5-3,1.299999713897705-.75-.800000190734863-1.800000190734863-1.300000190734863-3-1.300000190734863h-2c-.550000190734863,0-1,.449999809265137-1,1s.449999809265137,1,1,1h2c1.100000381469727,0,2,.850000381469727,2,1.899999618530273v17.600001335144043c0,1.25-1.050000190734863,3-2,3h-2c-.550000190734863,0-1,.450000762939453-1,1s.449999809265137,1,1,1h2c1.25,0,2.300000190734863-.850000381469727,3-1.899999618530273.699999809265137,1.100000381469727,1.75,1.899999618530273,3,1.899999618530273h2c.549999237060547,0,1-.450000762939453,1-1s-.450000762939453-1-1-1Z" fill="#666"/>
  <path d="M14.472905970715146,21.847291087809936c-.96059116910692-.896552735001023-1.472905970715146-2.049261649344771-1.472905970715146-3.522167620063556,0-1.472905970711508.448276367498693-2.561576450947541,1.408867536605612-3.394088308927167s2.369458705710713-1.28078822547468,4.162561732797258-1.28078822547468h4.034482421666326v-1.472905970717875c0-.896551513540544-.256158622260045-1.600985281845169-.832511857975987-2.049261649342043-.576353235717761-.448276367498693-1.280788225478318-.640394112739159-2.177340960472065-.640394112739159-.896552735001023,0-1.088670480236033.064039655566376-1.472905970718784.256157400805023-.384235490475476.192117745240466-.704432546843236.384236711934136-.896552734995566.64039411273825-.192120188148692.256157400804113-.384235490480933.576354457171874-.448276367500512.96059116910601h-3.137930908123963c0-.64039411273825.192117745238647-1.28078822547468.512314801610046-1.793103027082907.320195834912738-.512314801608227.640392891284137-1.024630824672386,1.152710135802408-1.408867536606522s1.152708914343748-.704433768301897,1.857143904102486-.896551513543272c.7044349897551-.192117745238647,1.600985281846079-.320197056367761,2.625614885062532-.320197056367761,1.024629603214635,0,2.177340960473884.192117745238647,3.137932129578985.512314801609136.96059116910692.320197056367761,1.665023715957432.896551513543272,2.241379394585238,1.665024937407907.576355678625987.768473423868272.832511857975987,1.857142682649283.832511857975987,3.137930908126691v10.758620605417491h-3.137932129580804v-2.04926164934659h-.128079311127294c-.256158622260045.384235490482752-.512314801608227.768473423868272-.960591169108739,1.152708914351024s-.896552734995566.640394112735521-1.472905970713327.832511857975987c-.576353235723218.192117745240466-1.280788225476499.320197056367761-2.049261649344771.320197056367761-1.536946847736544,0-2.753694196193464-.448276367498693-3.714285365298565-1.344826659586033l-.064038434111353-.064038434107715ZM21.004926409224936,20.182267371850685c.512314801608227-.256158622258226.896552734999204-.640394112735521,1.216749791368784-1.088670480236033.320197056367761-.448276367495055.448276367493236-.960591169103282.448276367493236-1.536946847731087v-1.729064592977011h-3.458129185946746c-.960591169105101,0-1.665023715955613.192117745240466-2.113300083456124.64039411273734-.448276367493236.448276367498693-.640394112735521.960591169108739-.640394112735521,1.665023715957432,0,.704432546845055.320197056367761,1.472905970713327.896552734995566,1.857143904104305.576355678631444.38423793338734,1.216749791368784.576355678627806,1.985220772327011.576355678627806s1.216749791363327-.128079311132751,1.729064592971554-.384235490482752h-.06404087701776Z" fill="#30a0fb"/>
</svg>