<?xml version="1.0" encoding="UTF-8"?>
<svg id="uuid-0bc271fb-1560-4e81-81f8-7f562da84e53" data-name="Layer 1" xmlns="http://www.w3.org/2000/svg" width="64" height="64" viewBox="0 0 64 64">
  <rect width="64" height="64.000000008620191" fill="none"/>
  <path d="M59,0H5C2.23858642578125,0,0,2.23858642578125,0,5v44c0,2.76141357421875,2.23858642578125,5,5,5h54c2.76141357421875,0,5-2.23858642578125,5-5V5c0-2.76141357421875-2.23858642578125-5-5-5ZM59,49H5V5h54v44Z" fill="#67b1e6"/>
  <path d="M30.5,57h-4c-1.899999618530273,0-4-3.5-4-6V15.799999237060547c0-2.100000381469727,1.799999237060547-3.800000190734863,4-3.800000190734863h4c1.099998474121094,0,2-.899999618530273,2-2s-.900001525878906-2-2-2h-4c-2.399999618530273,0-4.5,1-6,2.59999942779541-1.5-1.600000381469727-3.600000381469727-2.600000381469727-6-2.600000381469727h-4c-1.100000381469727,0-2,.899999618530273-2,2s.899999618530273,2,2,2h4c2.200000762939453,0,4,1.700000762939453,4,3.799999237060547v35.200002670288086c0,2.5-2.100000381469727,6-4,6h-4c-1.100000381469727,0-2,.900001525878906-2,2s.899999618530273,2,2,2h4c2.5,0,4.600000381469727-1.700000762939453,6-3.799999237060547,1.399999618530273,2.200000762939453,3.5,3.799999237060547,6,3.799999237060547h4c1.099998474121094,0,2-.900001525878906,2-2s-.900001525878906-2-2-2Z" fill="#666"/>
  <path d="M28.945811941432112,43.694582171308866c-1.921182338214749-1.793105470000228-2.945811941432112-4.098523298689543-2.945811941432112-7.044335240125292,0-2.945811941424836.896552734995566-5.123152901896901,2.817735073211225-6.788176617854333,1.921182338213839-1.665023715953794,4.738917411423245-2.56157645095027,8.325123465594515-2.56157645095027h8.068964843332651v-2.94581194143575c0-1.793103027081088-.512317244518272-3.201970563689429-1.665023715953794-4.098523298684995-1.152706471433703-.896552734995566-2.561576450952998-1.280788225476499-4.354681920944131-1.280788225476499-1.793105470000228,0-2.177340960472065.128079311131842-2.94581194143575.512314801608227-.76847098095277.384235490481842-1.408865093688291.768473423868272-1.793105469989314,1.280788225477409s-.768470980963684,1.152708914344657-.896552735001023,1.92118233821293h-6.275861816247016c0-1.280788225477409.384235490476385-2.56157645094936,1.024629603217363-3.586206054166723.640391669827295-1.024629603217363,1.280785782566454-2.049261649344771,2.305420271604817-2.817735073213044,1.024634489036544-.768473423868272,2.305417828689315-1.408867536603793,3.714287808206791-1.793103027085635,1.4088699795102-.384235490477295,3.201970563690338-.640394112736431,5.251229770125065-.640394112736431,2.04925920642745,0,4.35468192094595.384235490477295,6.275864259154332,1.024629603218273,1.921182338217477.640394112735521,3.330047431916682,1.793103027085635,4.482758789170475,3.330049874816723,1.152711357255612,1.536946847736544,1.665023715953794,3.714285365298565,1.665023715953794,6.275861816252473v21.517241210834072h-6.275864259161608v-4.098523298691362h-.256158622254588c-.512317244518272.768470980963684-1.024629603218273,1.536946847736544-1.921182338217477,2.305417828700229-.896552735001023.76847098095277-1.793105469991133,1.280788225471042-2.945811941426655,1.665023715953794-1.152706471444617.384235490480933-2.561576450952998.640394112735521-4.098523298689543.640394112735521-3.073893695473089,0-5.507388392386929-.896552734999204-7.42857073059713-2.689653319172066l-.128076868220887-.128076868217249ZM42.009852818449872,40.364534739392184c1.024629603216454-.512317244518272,1.793105469998409-1.280788225471042,2.433499582735749-2.177340960472065.640394112735521-.896552734990109.896552734990109-1.921182338208382.896552734990109-3.073893695462175v-3.458129185954022h-6.916258371897129c-1.921182338208382,0-3.330047431907587.384235490480933-4.226600166908611,1.280788225472861-.896552734990109.896552734999204-1.280788225471042,1.921182338217477-1.280788225471042,3.330047431916682,0,1.408865093688291.640394112735521,2.945811941424836,1.793105469989314,3.714287808206791,1.152711357264707.768475866774679,2.433499582737568,1.152711357255612,3.970441544654022,1.152711357255612s2.433499582726654-.256158622263683,3.458129185943108-.768470980963684h-.12808175403552Z" fill="#30a0fb"/>
</svg>